<svg width="512" height="512" viewBox="0 0 512 512" fill="none" xmlns="http://www.w3.org/2000/svg">
<path d="M96 0C60.7 0 32 28.7 32 64V448C32 483.3 60.7 512 96 512H384C419.3 512 448 483.3 448 448V64C448 28.7 419.3 0 384 0H96ZM208 288H272C316.2 288 352 323.8 352 368C352 376.8 344.8 384 336 384H144C135.2 384 128 376.8 128 368C128 323.8 163.8 288 208 288ZM176 192C176 175.026 182.743 158.747 194.745 146.745C206.747 134.743 223.026 128 240 128C256.974 128 273.252 134.743 285.255 146.745C297.257 158.747 304 175.026 304 192C304 208.974 297.257 225.253 285.255 237.255C273.252 249.257 256.974 256 240 256C223.026 256 206.747 249.257 194.745 237.255C182.743 225.253 176 208.974 176 192ZM512 80C512 71.2 504.8 64 496 64C487.2 64 480 71.2 480 80V144C480 152.8 487.2 160 496 160C504.8 160 512 152.8 512 144V80ZM496 192C487.2 192 480 199.2 480 208V272C480 280.8 487.2 288 496 288C504.8 288 512 280.8 512 272V208C512 199.2 504.8 192 496 192ZM512 336C512 327.2 504.8 320 496 320C487.2 320 480 327.2 480 336V400C480 408.8 487.2 416 496 416C504.8 416 512 408.8 512 400V336Z" fill="url(#paint0_linear_70_2)"/>
<defs>
<linearGradient id="paint0_linear_70_2" x1="272" y1="0" x2="272" y2="512" gradientUnits="userSpaceOnUse">
<stop stop-color="#16C7FF"/>
<stop offset="1" stop-color="#0D5E99"/>
</linearGradient>
</defs>
</svg>
